<?xml version="1.0" encoding="UTF-8"?>
<!DOCTYPE svg PUBLIC "-//W3C//DTD SVG 1.1//EN" "http://www.w3.org/Graphics/SVG/1.1/DTD/svg11.dtd">
<svg xmlns="http://www.w3.org/2000/svg" version="1.1" width="1024px" height="294px"
    style="shape-rendering:geometricPrecision; text-rendering:geometricPrecision; image-rendering:optimizeQuality; fill-rule:evenodd; clip-rule:evenodd"
    xmlns:xlink="http://www.w3.org/1999/xlink">
    <g transform="translate(10,10)">
        <g>
            <path style="opacity:0.96" fill="#45a048"
                d="M 690.5,0.5 C 702.228,-0.890466 710.394,3.7762 715,14.5C 716.394,32.4281 716.894,50.2614 716.5,68C 731.167,68.6667 745.833,68.6667 760.5,68C 765.072,67.5375 769.572,66.7041 774,65.5C 784.502,66.8498 788.169,72.5165 785,82.5C 781.312,86.4279 776.812,88.9279 771.5,90C 763.547,91.2145 755.547,92.0479 747.5,92.5C 738.179,91.5156 728.845,91.349 719.5,92C 718.376,92.2492 717.376,92.7492 716.5,93.5C 716.588,119.467 716.422,145.467 716,171.5C 716.333,173.5 716.667,175.5 717,177.5C 724.916,178.915 729.749,183.582 731.5,191.5C 729.092,199.743 723.759,205.243 715.5,208C 703.346,209.012 695.18,203.846 691,192.5C 690.833,159.162 690.333,125.828 689.5,92.5C 673.443,89.0923 658.443,91.5923 644.5,100C 630.569,100.72 625.403,94.2201 629,80.5C 636.687,72.3775 646.187,68.5441 657.5,69C 668.544,68.838 679.544,68.6713 690.5,68.5C 690.667,56.8286 690.5,45.1619 690,33.5C 689.751,32.376 689.251,31.376 688.5,30.5C 674.888,26.6312 672.054,18.9646 680,7.5C 683.308,4.77106 686.808,2.43772 690.5,0.5 Z" />
        </g>
        <g>
            <path style="opacity:0.956" fill="#45a048"
                d="M 876.5,0.5 C 888.574,-0.0516188 896.741,5.28171 901,16.5C 901.333,55.8333 901.667,95.1667 902,134.5C 903.062,135.097 904.228,135.43 905.5,135.5C 921.674,130.998 935.841,122.998 948,111.5C 951.46,105.41 955.294,99.5766 959.5,94C 966.697,91.0922 974.03,90.7588 981.5,93C 985.822,97.8609 986.655,103.361 984,109.5C 978.833,117.333 972.333,123.833 964.5,129C 956.634,134.429 948.634,139.596 940.5,144.5C 953.658,156.823 966.991,168.989 980.5,181C 985.437,183.694 990.604,185.86 996,187.5C 1001.63,198.415 998.459,205.248 986.5,208C 976.191,210.337 967.357,207.837 960,200.5C 957.089,197.01 954.422,193.344 952,189.5C 941.196,179.697 930.696,169.53 920.5,159C 914.862,155.743 909.196,155.743 903.5,159C 901.903,161.026 900.903,163.359 900.5,166C 900.947,175.284 903.78,183.784 909,191.5C 911.166,198.999 908.666,204.166 901.5,207C 893.885,209.603 886.718,208.77 880,204.5C 877.66,200.479 876.326,196.146 876,191.5C 875.667,138.167 875.333,84.8333 875,31.5C 862.256,28.679 858.59,21.3457 864,9.5C 867.299,5.1179 871.466,2.1179 876.5,0.5 Z" />
        </g>
        <g>
            <path style="opacity:0.939" fill="#45a048"
                d="M 811.5,32.5 C 828.488,33.1285 833.988,41.4619 828,57.5C 819.04,65.7155 810.374,65.3821 802,56.5C 797.255,45.2166 800.422,37.2166 811.5,32.5 Z" />
        </g>
        <g>
            <path style="opacity:0.96" fill="#45a048"
                d="M 14.5,43.5 C 20.6311,43.3593 26.6311,44.1926 32.5,46C 65.8333,46.6667 99.1667,46.6667 132.5,46C 138.766,43.3376 145.099,43.0043 151.5,45C 153.359,46.5578 154.859,48.3911 156,50.5C 159.591,58.8593 161.591,67.526 162,76.5C 157.785,80.6195 152.951,81.4529 147.5,79C 142.833,75.6667 138.167,72.3333 133.5,69C 121.167,68.3333 108.833,68.3333 96.5,69C 95.8742,69.7504 95.3742,70.5838 95,71.5C 94.1378,108.514 94.4712,145.514 96,182.5C 99.0562,184.279 102.223,185.946 105.5,187.5C 109.61,193.164 109.277,198.664 104.5,204C 94.4201,205.235 84.2534,206.068 74,206.5C 67.4333,206.572 61.4333,204.905 56,201.5C 52.5471,191.064 56.2138,185.064 67,183.5C 67.6667,145.833 67.6667,108.167 67,70.5C 66.5,70 66,69.5 65.5,69C 56.6494,68.7312 47.8161,68.2312 39,67.5C 35.5,68 32,68.5 28.5,69C 23.8815,71.9504 19.5482,75.2838 15.5,79C 11.1208,80.8221 6.7875,80.8221 2.5,79C 1.07022,77.0926 0.403549,74.9259 0.5,72.5C 1.91496,63.2541 4.91496,54.5874 9.5,46.5C 11.1446,45.3037 12.8113,44.3037 14.5,43.5 Z" />
        </g>
        <g>
            <path style="opacity:0.962" fill="#45a048"
                d="M 234.5,93.5 C 260.569,92.1198 281.736,101.453 298,121.5C 313.311,149.135 309.145,173.301 285.5,194C 255.512,213.301 225.512,213.301 195.5,194C 174.412,176.382 168.579,154.549 178,128.5C 185.415,115.193 196.248,105.693 210.5,100C 218.26,96.5008 226.26,94.3342 234.5,93.5 Z M 239.5,116.5 C 269.915,118.062 282.748,133.728 278,163.5C 269.506,177.756 256.839,185.089 240,185.5C 222.297,185.323 209.631,177.323 202,161.5C 197.697,140.606 205.53,126.439 225.5,119C 230.315,118.197 234.981,117.363 239.5,116.5 Z" />
        </g>
        <g>
            <path style="opacity:0.962" fill="#45a048"
                d="M 340.5,93.5 C 349.966,93.4827 357.133,97.4827 362,105.5C 390.766,89.3012 419.266,89.8012 447.5,107C 463.894,120.153 471.394,137.32 470,158.5C 465.632,181.201 452.798,197.034 431.5,206C 407.41,214.436 384.91,211.603 364,197.5C 363.333,210.167 363.333,222.833 364,235.5C 367.49,237.676 371.157,239.676 375,241.5C 377.374,245.894 378.041,250.56 377,255.5C 368.397,267.435 357.897,269.602 345.5,262C 340.453,258.073 337.953,252.906 338,246.5C 337.464,207.825 337.464,169.158 338,130.5C 337.689,128.444 337.189,126.444 336.5,124.5C 333.579,122.911 330.579,121.411 327.5,120C 320.731,113.044 321.064,106.377 328.5,100C 332.157,97.0078 336.157,94.8412 340.5,93.5 Z M 397.5,117.5 C 415.736,115.623 430.236,121.956 441,136.5C 449.14,158.424 442.64,174.257 421.5,184C 399.189,191.559 381.022,186.059 367,167.5C 358.782,139.562 368.948,122.895 397.5,117.5 Z" />
        </g>
        <g>
            <path style="opacity:0.964" fill="#45a048"
                d="M 545.5,93.5 C 570.503,92.7621 590.67,102.095 606,121.5C 620.937,148.377 617.104,172.21 594.5,193C 569.734,210.484 543.401,213.151 515.5,201C 487.35,186.862 476.85,164.362 484,133.5C 493.763,112.181 510.263,99.3477 533.5,95C 537.688,94.8238 541.688,94.3238 545.5,93.5 Z M 545.5,116.5 C 560.429,115.961 572.596,121.295 582,132.5C 593.547,160.239 584.714,177.739 555.5,185C 536.281,187.471 521.448,180.638 511,164.5C 505.192,136.133 516.692,120.133 545.5,116.5 Z" />
        </g>
        <g>
            <path style="opacity:0.959" fill="#45a048"
                d="M 808.5,93.5 C 818.219,94.0684 825.053,98.7351 829,107.5C 829.754,131.164 830.421,154.831 831,178.5C 844.523,182.678 847.189,190.678 839,202.5C 824.572,212.466 813.572,209.466 806,193.5C 805.667,171.167 805.333,148.833 805,126.5C 804.751,125.376 804.251,124.376 803.5,123.5C 791.632,120.43 788.465,113.43 794,102.5C 798.025,97.9312 802.859,94.9312 808.5,93.5 Z" />
        </g>
        <g>
            <path
                d="M 690.5,0.5 C 702.228,-0.890466 710.394,3.7762 715,14.5C 716.394,32.4281 716.894,50.2614 716.5,68C 731.167,68.6667 745.833,68.6667 760.5,68C 765.072,67.5375 769.572,66.7041 774,65.5C 784.502,66.8498 788.169,72.5165 785,82.5C 781.312,86.4279 776.812,88.9279 771.5,90C 763.547,91.2145 755.547,92.0479 747.5,92.5C 738.179,91.5156 728.845,91.349 719.5,92C 718.376,92.2492 717.376,92.7492 716.5,93.5C 716.588,119.467 716.422,145.467 716,171.5C 716.333,173.5 716.667,175.5 717,177.5C 724.916,178.915 729.749,183.582 731.5,191.5C 729.092,199.743 723.759,205.243 715.5,208C 703.346,209.012 695.18,203.846 691,192.5C 690.833,159.162 690.333,125.828 689.5,92.5C 673.443,89.0923 658.443,91.5923 644.5,100C 630.569,100.72 625.403,94.2201 629,80.5C 636.687,72.3775 646.187,68.5441 657.5,69C 668.544,68.838 679.544,68.6713 690.5,68.5C 690.667,56.8286 690.5,45.1619 690,33.5C 689.751,32.376 689.251,31.376 688.5,30.5C 674.888,26.6312 672.054,18.9646 680,7.5C 683.308,4.77106 686.808,2.43772 690.5,0.5 Z"
                fill="none" stroke="#006204" stroke-width="10" opacity="0.96" />
        </g>
        <g>
            <path
                d="M 876.5,0.5 C 888.574,-0.0516188 896.741,5.28171 901,16.5C 901.333,55.8333 901.667,95.1667 902,134.5C 903.062,135.097 904.228,135.43 905.5,135.5C 921.674,130.998 935.841,122.998 948,111.5C 951.46,105.41 955.294,99.5766 959.5,94C 966.697,91.0922 974.03,90.7588 981.5,93C 985.822,97.8609 986.655,103.361 984,109.5C 978.833,117.333 972.333,123.833 964.5,129C 956.634,134.429 948.634,139.596 940.5,144.5C 953.658,156.823 966.991,168.989 980.5,181C 985.437,183.694 990.604,185.86 996,187.5C 1001.63,198.415 998.459,205.248 986.5,208C 976.191,210.337 967.357,207.837 960,200.5C 957.089,197.01 954.422,193.344 952,189.5C 941.196,179.697 930.696,169.53 920.5,159C 914.862,155.743 909.196,155.743 903.5,159C 901.903,161.026 900.903,163.359 900.5,166C 900.947,175.284 903.78,183.784 909,191.5C 911.166,198.999 908.666,204.166 901.5,207C 893.885,209.603 886.718,208.77 880,204.5C 877.66,200.479 876.326,196.146 876,191.5C 875.667,138.167 875.333,84.8333 875,31.5C 862.256,28.679 858.59,21.3457 864,9.5C 867.299,5.1179 871.466,2.1179 876.5,0.5 Z"
                fill="none" stroke="#006204" stroke-width="10" opacity="0.956" />
        </g>
        <g>
            <path
                d="M 811.5,32.5 C 828.488,33.1285 833.988,41.4619 828,57.5C 819.04,65.7155 810.374,65.3821 802,56.5C 797.255,45.2166 800.422,37.2166 811.5,32.5 Z"
                fill="none" stroke="#006204" stroke-width="10" opacity="0.939" />
        </g>
        <g>
            <path
                d="M 14.5,43.5 C 20.6311,43.3593 26.6311,44.1926 32.5,46C 65.8333,46.6667 99.1667,46.6667 132.5,46C 138.766,43.3376 145.099,43.0043 151.5,45C 153.359,46.5578 154.859,48.3911 156,50.5C 159.591,58.8593 161.591,67.526 162,76.5C 157.785,80.6195 152.951,81.4529 147.5,79C 142.833,75.6667 138.167,72.3333 133.5,69C 121.167,68.3333 108.833,68.3333 96.5,69C 95.8742,69.7504 95.3742,70.5838 95,71.5C 94.1378,108.514 94.4712,145.514 96,182.5C 99.0562,184.279 102.223,185.946 105.5,187.5C 109.61,193.164 109.277,198.664 104.5,204C 94.4201,205.235 84.2534,206.068 74,206.5C 67.4333,206.572 61.4333,204.905 56,201.5C 52.5471,191.064 56.2138,185.064 67,183.5C 67.6667,145.833 67.6667,108.167 67,70.5C 66.5,70 66,69.5 65.5,69C 56.6494,68.7312 47.8161,68.2312 39,67.5C 35.5,68 32,68.5 28.5,69C 23.8815,71.9504 19.5482,75.2838 15.5,79C 11.1208,80.8221 6.7875,80.8221 2.5,79C 1.07022,77.0926 0.403549,74.9259 0.5,72.5C 1.91496,63.2541 4.91496,54.5874 9.5,46.5C 11.1446,45.3037 12.8113,44.3037 14.5,43.5 Z"
                fill="none" stroke="#006204" stroke-width="10" opacity="0.96" />
        </g>
        <g>
            <path
                d="M 234.5,93.5 C 260.569,92.1198 281.736,101.453 298,121.5C 313.311,149.135 309.145,173.301 285.5,194C 255.512,213.301 225.512,213.301 195.5,194C 174.412,176.382 168.579,154.549 178,128.5C 185.415,115.193 196.248,105.693 210.5,100C 218.26,96.5008 226.26,94.3342 234.5,93.5 Z M 239.5,116.5 C 269.915,118.062 282.748,133.728 278,163.5C 269.506,177.756 256.839,185.089 240,185.5C 222.297,185.323 209.631,177.323 202,161.5C 197.697,140.606 205.53,126.439 225.5,119C 230.315,118.197 234.981,117.363 239.5,116.5 Z"
                fill="none" stroke="#006204" stroke-width="10" opacity="0.962" />
        </g>
        <g>
            <path
                d="M 340.5,93.5 C 349.966,93.4827 357.133,97.4827 362,105.5C 390.766,89.3012 419.266,89.8012 447.5,107C 463.894,120.153 471.394,137.32 470,158.5C 465.632,181.201 452.798,197.034 431.5,206C 407.41,214.436 384.91,211.603 364,197.5C 363.333,210.167 363.333,222.833 364,235.5C 367.49,237.676 371.157,239.676 375,241.5C 377.374,245.894 378.041,250.56 377,255.5C 368.397,267.435 357.897,269.602 345.5,262C 340.453,258.073 337.953,252.906 338,246.5C 337.464,207.825 337.464,169.158 338,130.5C 337.689,128.444 337.189,126.444 336.5,124.5C 333.579,122.911 330.579,121.411 327.5,120C 320.731,113.044 321.064,106.377 328.5,100C 332.157,97.0078 336.157,94.8412 340.5,93.5 Z M 397.5,117.5 C 415.736,115.623 430.236,121.956 441,136.5C 449.14,158.424 442.64,174.257 421.5,184C 399.189,191.559 381.022,186.059 367,167.5C 358.782,139.562 368.948,122.895 397.5,117.5 Z"
                fill="none" stroke="#006204" stroke-width="10" opacity="0.962" />
        </g>
        <g>
            <path
                d="M 545.5,93.5 C 570.503,92.7621 590.67,102.095 606,121.5C 620.937,148.377 617.104,172.21 594.5,193C 569.734,210.484 543.401,213.151 515.5,201C 487.35,186.862 476.85,164.362 484,133.5C 493.763,112.181 510.263,99.3477 533.5,95C 537.688,94.8238 541.688,94.3238 545.5,93.5 Z M 545.5,116.5 C 560.429,115.961 572.596,121.295 582,132.5C 593.547,160.239 584.714,177.739 555.5,185C 536.281,187.471 521.448,180.638 511,164.5C 505.192,136.133 516.692,120.133 545.5,116.5 Z"
                fill="none" stroke="#006204" stroke-width="10" opacity="0.964" />
        </g>
        <g>
            <path
                d="M 808.5,93.5 C 818.219,94.0684 825.053,98.7351 829,107.5C 829.754,131.164 830.421,154.831 831,178.5C 844.523,182.678 847.189,190.678 839,202.5C 824.572,212.466 813.572,209.466 806,193.5C 805.667,171.167 805.333,148.833 805,126.5C 804.751,125.376 804.251,124.376 803.5,123.5C 791.632,120.43 788.465,113.43 794,102.5C 798.025,97.9312 802.859,94.9312 808.5,93.5 Z"
                fill="none" stroke="#006204" stroke-width="10" opacity="0.959" />
        </g>
    </g>
</svg>